<?xml version="1.0" ?>
<svg enable-background="new 0 0 512 512" id="Layer_2" version="1.1" viewBox="0 0 512 512" xml:space="preserve" xmlns="http://www.w3.org/2000/svg" xmlns:xlink="http://www.w3.org/1999/xlink">
    <g>
        <g>
            <g>
                <rect fill="none" height="94.823" stroke="#00D1B2" stroke-linecap="round" stroke-linejoin="round" stroke-miterlimit="10" stroke-width="20" width="94.823" x="21.673" y="86.023"/>
                <rect fill="none" height="28.541" stroke="#00D1B2" stroke-linecap="round" stroke-linejoin="round" stroke-miterlimit="10" stroke-width="20" width="28.541" x="54.814" y="119.164"/>
            </g>
            <g>
                <rect fill="none" height="94.823" stroke="#00D1B2" stroke-linecap="round" stroke-linejoin="round" stroke-miterlimit="10" stroke-width="20" width="94.823" x="21.673" y="227.514"/>
                <rect fill="none" height="28.541" stroke="#00D1B2" stroke-linecap="round" stroke-linejoin="round" stroke-miterlimit="10" stroke-width="20" width="28.541" x="54.814" y="260.654"/>
            </g>
            <g>
                <polyline fill="none" points="     186.304,180.846 163.163,180.846 163.163,86.023 186.304,86.023    " stroke="#00D1B2" stroke-linecap="round" stroke-linejoin="round" stroke-miterlimit="10" stroke-width="20"/>
            </g>
            <polyline fill="none" points="    186.304,260.654 163.163,260.654 163.163,227.514 186.304,227.514   " stroke="#00D1B2" stroke-linecap="round" stroke-linejoin="round" stroke-miterlimit="10" stroke-width="20"/>
            <polyline fill="none" points="    186.304,322.336 163.163,322.336 163.163,289.196 186.304,289.196   " stroke="#00D1B2" stroke-linecap="round" stroke-linejoin="round" stroke-miterlimit="10" stroke-width="20"/>
        </g>
        <g>
            <g>
                <path d="     M417.161,212.109l36.829,20.186c22.22,12.178,36.034,35.502,36.034,60.84v198.836" fill="none" stroke="#00D1B2" stroke-linecap="round" stroke-linejoin="round" stroke-miterlimit="10" stroke-width="20"/>
                <path d="     M434.233,362.966l-69.39-81.04c-11.109-13.202-31.073-14.24-43.491-2.263l0,0c-11.361,10.957-12.209,28.871-1.934,40.852     l71.872,82.073" fill="none" stroke="#00D1B2" stroke-linecap="round" stroke-linejoin="round" stroke-miterlimit="10" stroke-width="20"/>
                <path d="     M291.166,388.226l18.911,40.494c5.558,10.669,16.589,17.361,28.62,17.361h0c17.822,0,32.27,14.448,32.27,32.27v13.62" fill="none" stroke="#00D1B2" stroke-linecap="round" stroke-linejoin="round" stroke-miterlimit="10" stroke-width="20"/>
            </g>
        </g>
        <g>
            <path d="    M377.51,388.226H250.316c-18.074,0-32.725-14.652-32.725-32.725V58.28c0-18.074,14.652-32.725,32.725-32.725H377.51    c18.074,0,32.725,14.652,32.725,32.725v275.574" fill="none" stroke="#00D1B2" stroke-linecap="round" stroke-linejoin="round" stroke-miterlimit="10" stroke-width="20"/>
            <line fill="none" stroke="#00D1B2" stroke-linecap="round" stroke-linejoin="round" stroke-miterlimit="10" stroke-width="20" x1="219.532" x2="327.648" y1="333.854" y2="333.854"/>
            <line fill="none" stroke="#00D1B2" stroke-linecap="round" stroke-linejoin="round" stroke-miterlimit="10" stroke-width="20" x1="305.789" x2="321.919" y1="361.096" y2="361.096"/>
            <g>
                <polyline fill="none" points="     254.012,80.924 254.012,62.008 273.96,62.008    " stroke="#00D1B2" stroke-linecap="round" stroke-linejoin="round" stroke-miterlimit="10" stroke-width="20"/>
                <polyline fill="none" points="     374.78,80.924 374.78,62.008 354.833,62.008    " stroke="#00D1B2" stroke-linecap="round" stroke-linejoin="round" stroke-miterlimit="10" stroke-width="20"/>
                <polyline fill="none" points="     254.012,282.231 254.012,301.146 273.96,301.146    " stroke="#00D1B2" stroke-linecap="round" stroke-linejoin="round" stroke-miterlimit="10" stroke-width="20"/>
            </g>
        </g>
    </g>
</svg>
